<?xml version="1.0" encoding="utf-8" standalone="no"?>
<!DOCTYPE svg PUBLIC "-//W3C//DTD SVG 1.1//EN"
  "http://www.w3.org/Graphics/SVG/1.1/DTD/svg11.dtd">
<svg xmlns:xlink="http://www.w3.org/1999/xlink" width="845.598437pt" height="348.578437pt" viewBox="0 0 845.598437 348.578437" xmlns="http://www.w3.org/2000/svg" version="1.1">
 <metadata>
  <rdf:RDF xmlns:dc="http://purl.org/dc/elements/1.1/" xmlns:cc="http://creativecommons.org/ns#" xmlns:rdf="http://www.w3.org/1999/02/22-rdf-syntax-ns#">
   <cc:Work>
    <dc:type rdf:resource="http://purl.org/dc/dcmitype/StillImage"/>
    <dc:date>2026-04-26T15:56:41.418814</dc:date>
    <dc:format>image/svg+xml</dc:format>
    <dc:creator>
     <cc:Agent>
      <dc:title>Matplotlib v3.10.0, https://matplotlib.org/</dc:title>
     </cc:Agent>
    </dc:creator>
   </cc:Work>
  </rdf:RDF>
 </metadata>
 <defs>
  <style type="text/css">*{stroke-linejoin: round; stroke-linecap: butt}</style>
 </defs>
 <g id="figure_1">
  <g id="patch_1">
   <path d="M 0 348.578437 
L 845.598437 348.578437 
L 845.598437 0 
L 0 0 
z
" style="fill: #ffffff"/>
  </g>
  <g id="axes_1">
   <g id="patch_2">
    <path d="M 50.193438 194.773125 
L 838.398438 194.773125 
L 838.398438 22.318125 
L 50.193438 22.318125 
z
" style="fill: #ffffff"/>
   </g>
   <g id="matplotlib.axis_1">
    <g id="xtick_1">
     <g id="text_1">
      <!-- ap_hi -->
      <g style="fill: #262626" transform="translate(74.970365 233.524531) rotate(-90) scale(0.11 -0.11)">
       <defs>
        <path id="DejaVuSans-61" d="M 2194 1759 
Q 1497 1759 1228 1600 
Q 959 1441 959 1056 
Q 959 750 1161 570 
Q 1363 391 1709 391 
Q 2188 391 2477 730 
Q 2766 1069 2766 1631 
L 2766 1759 
L 2194 1759 
z
M 3341 1997 
L 3341 0 
L 2766 0 
L 2766 531 
Q 2569 213 2275 61 
Q 1981 -91 1556 -91 
Q 1019 -91 701 211 
Q 384 513 384 1019 
Q 384 1609 779 1909 
Q 1175 2209 1959 2209 
L 2766 2209 
L 2766 2266 
Q 2766 2663 2505 2880 
Q 2244 3097 1772 3097 
Q 1472 3097 1187 3025 
Q 903 2953 641 2809 
L 641 3341 
Q 956 3463 1253 3523 
Q 1550 3584 1831 3584 
Q 2591 3584 2966 3190 
Q 3341 2797 3341 1997 
z
" transform="scale(0.015625)"/>
        <path id="DejaVuSans-70" d="M 1159 525 
L 1159 -1331 
L 581 -1331 
L 581 3500 
L 1159 3500 
L 1159 2969 
Q 1341 3281 1617 3432 
Q 1894 3584 2278 3584 
Q 2916 3584 3314 3078 
Q 3713 2572 3713 1747 
Q 3713 922 3314 415 
Q 2916 -91 2278 -91 
Q 1894 -91 1617 61 
Q 1341 213 1159 525 
z
M 3116 1747 
Q 3116 2381 2855 2742 
Q 2594 3103 2138 3103 
Q 1681 3103 1420 2742 
Q 1159 2381 1159 1747 
Q 1159 1113 1420 752 
Q 1681 391 2138 391 
Q 2594 391 2855 752 
Q 3116 1113 3116 1747 
z
" transform="scale(0.015625)"/>
        <path id="DejaVuSans-5f" d="M 3263 -1063 
L 3263 -1509 
L -63 -1509 
L -63 -1063 
L 3263 -1063 
z
" transform="scale(0.015625)"/>
        <path id="DejaVuSans-68" d="M 3513 2113 
L 3513 0 
L 2938 0 
L 2938 2094 
Q 2938 2591 2744 2837 
Q 2550 3084 2163 3084 
Q 1697 3084 1428 2787 
Q 1159 2491 1159 1978 
L 1159 0 
L 581 0 
L 581 4863 
L 1159 4863 
L 1159 2956 
Q 1366 3272 1645 3428 
Q 1925 3584 2291 3584 
Q 2894 3584 3203 3211 
Q 3513 2838 3513 2113 
z
" transform="scale(0.015625)"/>
        <path id="DejaVuSans-69" d="M 603 3500 
L 1178 3500 
L 1178 0 
L 603 0 
L 603 3500 
z
M 603 4863 
L 1178 4863 
L 1178 4134 
L 603 4134 
L 603 4863 
z
" transform="scale(0.015625)"/>
       </defs>
       <use xlink:href="#DejaVuSans-61"/>
       <use xlink:href="#DejaVuSans-70" transform="translate(61.279297 0)"/>
       <use xlink:href="#DejaVuSans-5f" transform="translate(124.755859 0)"/>
       <use xlink:href="#DejaVuSans-68" transform="translate(174.755859 0)"/>
       <use xlink:href="#DejaVuSans-69" transform="translate(238.134766 0)"/>
      </g>
     </g>
    </g>
    <g id="xtick_2">
     <g id="text_2">
      <!-- map_pressure -->
      <g style="fill: #262626" transform="translate(118.606563 281.713125) rotate(-90) scale(0.11 -0.11)">
       <defs>
        <path id="DejaVuSans-6d" d="M 3328 2828 
Q 3544 3216 3844 3400 
Q 4144 3584 4550 3584 
Q 5097 3584 5394 3201 
Q 5691 2819 5691 2113 
L 5691 0 
L 5113 0 
L 5113 2094 
Q 5113 2597 4934 2840 
Q 4756 3084 4391 3084 
Q 3944 3084 3684 2787 
Q 3425 2491 3425 1978 
L 3425 0 
L 2847 0 
L 2847 2094 
Q 2847 2600 2669 2842 
Q 2491 3084 2119 3084 
Q 1678 3084 1418 2786 
Q 1159 2488 1159 1978 
L 1159 0 
L 581 0 
L 581 3500 
L 1159 3500 
L 1159 2956 
Q 1356 3278 1631 3431 
Q 1906 3584 2284 3584 
Q 2666 3584 2933 3390 
Q 3200 3197 3328 2828 
z
" transform="scale(0.015625)"/>
        <path id="DejaVuSans-72" d="M 2631 2963 
Q 2534 3019 2420 3045 
Q 2306 3072 2169 3072 
Q 1681 3072 1420 2755 
Q 1159 2438 1159 1844 
L 1159 0 
L 581 0 
L 581 3500 
L 1159 3500 
L 1159 2956 
Q 1341 3275 1631 3429 
Q 1922 3584 2338 3584 
Q 2397 3584 2469 3576 
Q 2541 3569 2628 3553 
L 2631 2963 
z
" transform="scale(0.015625)"/>
        <path id="DejaVuSans-65" d="M 3597 1894 
L 3597 1613 
L 953 1613 
Q 991 1019 1311 708 
Q 1631 397 2203 397 
Q 2534 397 2845 478 
Q 3156 559 3463 722 
L 3463 178 
Q 3153 47 2828 -22 
Q 2503 -91 2169 -91 
Q 1331 -91 842 396 
Q 353 884 353 1716 
Q 353 2575 817 3079 
Q 1281 3584 2069 3584 
Q 2775 3584 3186 3129 
Q 3597 2675 3597 1894 
z
M 3022 2063 
Q 3016 2534 2758 2815 
Q 2500 3097 2075 3097 
Q 1594 3097 1305 2825 
Q 1016 2553 972 2059 
L 3022 2063 
z
" transform="scale(0.015625)"/>
        <path id="DejaVuSans-73" d="M 2834 3397 
L 2834 2853 
Q 2591 2978 2328 3040 
Q 2066 3103 1784 3103 
Q 1356 3103 1142 2972 
Q 928 2841 928 2578 
Q 928 2378 1081 2264 
Q 1234 2150 1697 2047 
L 1894 2003 
Q 2506 1872 2764 1633 
Q 3022 1394 3022 966 
Q 3022 478 2636 193 
Q 2250 -91 1575 -91 
Q 1294 -91 989 -36 
Q 684 19 347 128 
L 347 722 
Q 666 556 975 473 
Q 1284 391 1588 391 
Q 1994 391 2212 530 
Q 2431 669 2431 922 
Q 2431 1156 2273 1281 
Q 2116 1406 1581 1522 
L 1381 1569 
Q 847 1681 609 1914 
Q 372 2147 372 2553 
Q 372 3047 722 3315 
Q 1072 3584 1716 3584 
Q 2034 3584 2315 3537 
Q 2597 3491 2834 3397 
z
" transform="scale(0.015625)"/>
        <path id="DejaVuSans-75" d="M 544 1381 
L 544 3500 
L 1119 3500 
L 1119 1403 
Q 1119 906 1312 657 
Q 1506 409 1894 409 
Q 2359 409 2629 706 
Q 2900 1003 2900 1516 
L 2900 3500 
L 3475 3500 
L 3475 0 
L 2900 0 
L 2900 538 
Q 2691 219 2414 64 
Q 2138 -91 1772 -91 
Q 1169 -91 856 284 
Q 544 659 544 1381 
z
M 1991 3584 
L 1991 3584 
z
" transform="scale(0.015625)"/>
       </defs>
       <use xlink:href="#DejaVuSans-6d"/>
       <use xlink:href="#DejaVuSans-61" transform="translate(97.412109 0)"/>
       <use xlink:href="#DejaVuSans-70" transform="translate(158.691406 0)"/>
       <use xlink:href="#DejaVuSans-5f" transform="translate(222.167969 0)"/>
       <use xlink:href="#DejaVuSans-70" transform="translate(272.167969 0)"/>
       <use xlink:href="#DejaVuSans-72" transform="translate(335.644531 0)"/>
       <use xlink:href="#DejaVuSans-65" transform="translate(374.507812 0)"/>
       <use xlink:href="#DejaVuSans-73" transform="translate(436.03125 0)"/>
       <use xlink:href="#DejaVuSans-73" transform="translate(488.130859 0)"/>
       <use xlink:href="#DejaVuSans-75" transform="translate(540.230469 0)"/>
       <use xlink:href="#DejaVuSans-72" transform="translate(603.609375 0)"/>
       <use xlink:href="#DejaVuSans-65" transform="translate(642.472656 0)"/>
      </g>
     </g>
    </g>
    <g id="xtick_3">
     <g id="text_3">
      <!-- ap_lo -->
      <g style="fill: #262626" transform="translate(162.548698 233.283906) rotate(-90) scale(0.11 -0.11)">
       <defs>
        <path id="DejaVuSans-6c" d="M 603 4863 
L 1178 4863 
L 1178 0 
L 603 0 
L 603 4863 
z
" transform="scale(0.015625)"/>
        <path id="DejaVuSans-6f" d="M 1959 3097 
Q 1497 3097 1228 2736 
Q 959 2375 959 1747 
Q 959 1119 1226 758 
Q 1494 397 1959 397 
Q 2419 397 2687 759 
Q 2956 1122 2956 1747 
Q 2956 2369 2687 2733 
Q 2419 3097 1959 3097 
z
M 1959 3584 
Q 2709 3584 3137 3096 
Q 3566 2609 3566 1747 
Q 3566 888 3137 398 
Q 2709 -91 1959 -91 
Q 1206 -91 779 398 
Q 353 888 353 1747 
Q 353 2609 779 3096 
Q 1206 3584 1959 3584 
z
" transform="scale(0.015625)"/>
       </defs>
       <use xlink:href="#DejaVuSans-61"/>
       <use xlink:href="#DejaVuSans-70" transform="translate(61.279297 0)"/>
       <use xlink:href="#DejaVuSans-5f" transform="translate(124.755859 0)"/>
       <use xlink:href="#DejaVuSans-6c" transform="translate(174.755859 0)"/>
       <use xlink:href="#DejaVuSans-6f" transform="translate(202.539062 0)"/>
      </g>
     </g>
    </g>
    <g id="xtick_4">
     <g id="text_4">
      <!-- bp_category_htn2 -->
      <g style="fill: #262626" transform="translate(206.337865 303.109844) rotate(-90) scale(0.11 -0.11)">
       <defs>
        <path id="DejaVuSans-62" d="M 3116 1747 
Q 3116 2381 2855 2742 
Q 2594 3103 2138 3103 
Q 1681 3103 1420 2742 
Q 1159 2381 1159 1747 
Q 1159 1113 1420 752 
Q 1681 391 2138 391 
Q 2594 391 2855 752 
Q 3116 1113 3116 1747 
z
M 1159 2969 
Q 1341 3281 1617 3432 
Q 1894 3584 2278 3584 
Q 2916 3584 3314 3078 
Q 3713 2572 3713 1747 
Q 3713 922 3314 415 
Q 2916 -91 2278 -91 
Q 1894 -91 1617 61 
Q 1341 213 1159 525 
L 1159 0 
L 581 0 
L 581 4863 
L 1159 4863 
L 1159 2969 
z
" transform="scale(0.015625)"/>
        <path id="DejaVuSans-63" d="M 3122 3366 
L 3122 2828 
Q 2878 2963 2633 3030 
Q 2388 3097 2138 3097 
Q 1578 3097 1268 2742 
Q 959 2388 959 1747 
Q 959 1106 1268 751 
Q 1578 397 2138 397 
Q 2388 397 2633 464 
Q 2878 531 3122 666 
L 3122 134 
Q 2881 22 2623 -34 
Q 2366 -91 2075 -91 
Q 1284 -91 818 406 
Q 353 903 353 1747 
Q 353 2603 823 3093 
Q 1294 3584 2113 3584 
Q 2378 3584 2631 3529 
Q 2884 3475 3122 3366 
z
" transform="scale(0.015625)"/>
        <path id="DejaVuSans-74" d="M 1172 4494 
L 1172 3500 
L 2356 3500 
L 2356 3053 
L 1172 3053 
L 1172 1153 
Q 1172 725 1289 603 
Q 1406 481 1766 481 
L 2356 481 
L 2356 0 
L 1766 0 
Q 1100 0 847 248 
Q 594 497 594 1153 
L 594 3053 
L 172 3053 
L 172 3500 
L 594 3500 
L 594 4494 
L 1172 4494 
z
" transform="scale(0.015625)"/>
        <path id="DejaVuSans-67" d="M 2906 1791 
Q 2906 2416 2648 2759 
Q 2391 3103 1925 3103 
Q 1463 3103 1205 2759 
Q 947 2416 947 1791 
Q 947 1169 1205 825 
Q 1463 481 1925 481 
Q 2391 481 2648 825 
Q 2906 1169 2906 1791 
z
M 3481 434 
Q 3481 -459 3084 -895 
Q 2688 -1331 1869 -1331 
Q 1566 -1331 1297 -1286 
Q 1028 -1241 775 -1147 
L 775 -588 
Q 1028 -725 1275 -790 
Q 1522 -856 1778 -856 
Q 2344 -856 2625 -561 
Q 2906 -266 2906 331 
L 2906 616 
Q 2728 306 2450 153 
Q 2172 0 1784 0 
Q 1141 0 747 490 
Q 353 981 353 1791 
Q 353 2603 747 3093 
Q 1141 3584 1784 3584 
Q 2172 3584 2450 3431 
Q 2728 3278 2906 2969 
L 2906 3500 
L 3481 3500 
L 3481 434 
z
" transform="scale(0.015625)"/>
        <path id="DejaVuSans-79" d="M 2059 -325 
Q 1816 -950 1584 -1140 
Q 1353 -1331 966 -1331 
L 506 -1331 
L 506 -850 
L 844 -850 
Q 1081 -850 1212 -737 
Q 1344 -625 1503 -206 
L 1606 56 
L 191 3500 
L 800 3500 
L 1894 763 
L 2988 3500 
L 3597 3500 
L 2059 -325 
z
" transform="scale(0.015625)"/>
        <path id="DejaVuSans-6e" d="M 3513 2113 
L 3513 0 
L 2938 0 
L 2938 2094 
Q 2938 2591 2744 2837 
Q 2550 3084 2163 3084 
Q 1697 3084 1428 2787 
Q 1159 2491 1159 1978 
L 1159 0 
L 581 0 
L 581 3500 
L 1159 3500 
L 1159 2956 
Q 1366 3272 1645 3428 
Q 1925 3584 2291 3584 
Q 2894 3584 3203 3211 
Q 3513 2838 3513 2113 
z
" transform="scale(0.015625)"/>
        <path id="DejaVuSans-32" d="M 1228 531 
L 3431 531 
L 3431 0 
L 469 0 
L 469 531 
Q 828 903 1448 1529 
Q 2069 2156 2228 2338 
Q 2531 2678 2651 2914 
Q 2772 3150 2772 3378 
Q 2772 3750 2511 3984 
Q 2250 4219 1831 4219 
Q 1534 4219 1204 4116 
Q 875 4013 500 3803 
L 500 4441 
Q 881 4594 1212 4672 
Q 1544 4750 1819 4750 
Q 2544 4750 2975 4387 
Q 3406 4025 3406 3419 
Q 3406 3131 3298 2873 
Q 3191 2616 2906 2266 
Q 2828 2175 2409 1742 
Q 1991 1309 1228 531 
z
" transform="scale(0.015625)"/>
       </defs>
       <use xlink:href="#DejaVuSans-62"/>
       <use xlink:href="#DejaVuSans-70" transform="translate(63.476562 0)"/>
       <use xlink:href="#DejaVuSans-5f" transform="translate(126.953125 0)"/>
       <use xlink:href="#DejaVuSans-63" transform="translate(176.953125 0)"/>
       <use xlink:href="#DejaVuSans-61" transform="translate(231.933594 0)"/>
       <use xlink:href="#DejaVuSans-74" transform="translate(293.212891 0)"/>
       <use xlink:href="#DejaVuSans-65" transform="translate(332.421875 0)"/>
       <use xlink:href="#DejaVuSans-67" transform="translate(393.945312 0)"/>
       <use xlink:href="#DejaVuSans-6f" transform="translate(457.421875 0)"/>
       <use xlink:href="#DejaVuSans-72" transform="translate(518.603516 0)"/>
       <use xlink:href="#DejaVuSans-79" transform="translate(559.716797 0)"/>
       <use xlink:href="#DejaVuSans-5f" transform="translate(618.896484 0)"/>
       <use xlink:href="#DejaVuSans-68" transform="translate(668.896484 0)"/>
       <use xlink:href="#DejaVuSans-74" transform="translate(732.275391 0)"/>
       <use xlink:href="#DejaVuSans-6e" transform="translate(771.484375 0)"/>
       <use xlink:href="#DejaVuSans-32" transform="translate(834.863281 0)"/>
      </g>
     </g>
    </g>
    <g id="xtick_5">
     <g id="text_5">
      <!-- pulse_pressure -->
      <g style="fill: #262626" transform="translate(250.127031 286.783437) rotate(-90) scale(0.11 -0.11)">
       <use xlink:href="#DejaVuSans-70"/>
       <use xlink:href="#DejaVuSans-75" transform="translate(63.476562 0)"/>
       <use xlink:href="#DejaVuSans-6c" transform="translate(126.855469 0)"/>
       <use xlink:href="#DejaVuSans-73" transform="translate(154.638672 0)"/>
       <use xlink:href="#DejaVuSans-65" transform="translate(206.738281 0)"/>
       <use xlink:href="#DejaVuSans-5f" transform="translate(268.261719 0)"/>
       <use xlink:href="#DejaVuSans-70" transform="translate(318.261719 0)"/>
       <use xlink:href="#DejaVuSans-72" transform="translate(381.738281 0)"/>
       <use xlink:href="#DejaVuSans-65" transform="translate(420.601562 0)"/>
       <use xlink:href="#DejaVuSans-73" transform="translate(482.125 0)"/>
       <use xlink:href="#DejaVuSans-73" transform="translate(534.224609 0)"/>
       <use xlink:href="#DejaVuSans-75" transform="translate(586.324219 0)"/>
       <use xlink:href="#DejaVuSans-72" transform="translate(649.703125 0)"/>
       <use xlink:href="#DejaVuSans-65" transform="translate(688.566406 0)"/>
      </g>
     </g>
    </g>
    <g id="xtick_6">
     <g id="text_6">
      <!-- age_years -->
      <g style="fill: #262626" transform="translate(293.763229 260.538125) rotate(-90) scale(0.11 -0.11)">
       <use xlink:href="#DejaVuSans-61"/>
       <use xlink:href="#DejaVuSans-67" transform="translate(61.279297 0)"/>
       <use xlink:href="#DejaVuSans-65" transform="translate(124.755859 0)"/>
       <use xlink:href="#DejaVuSans-5f" transform="translate(186.279297 0)"/>
       <use xlink:href="#DejaVuSans-79" transform="translate(236.279297 0)"/>
       <use xlink:href="#DejaVuSans-65" transform="translate(295.458984 0)"/>
       <use xlink:href="#DejaVuSans-61" transform="translate(356.982422 0)"/>
       <use xlink:href="#DejaVuSans-72" transform="translate(418.261719 0)"/>
       <use xlink:href="#DejaVuSans-73" transform="translate(459.375 0)"/>
      </g>
     </g>
    </g>
    <g id="xtick_7">
     <g id="text_7">
      <!-- cholesterol -->
      <g style="fill: #262626" transform="translate(337.858333 264.719844) rotate(-90) scale(0.11 -0.11)">
       <use xlink:href="#DejaVuSans-63"/>
       <use xlink:href="#DejaVuSans-68" transform="translate(54.980469 0)"/>
       <use xlink:href="#DejaVuSans-6f" transform="translate(118.359375 0)"/>
       <use xlink:href="#DejaVuSans-6c" transform="translate(179.541016 0)"/>
       <use xlink:href="#DejaVuSans-65" transform="translate(207.324219 0)"/>
       <use xlink:href="#DejaVuSans-73" transform="translate(268.847656 0)"/>
       <use xlink:href="#DejaVuSans-74" transform="translate(320.947266 0)"/>
       <use xlink:href="#DejaVuSans-65" transform="translate(360.15625 0)"/>
       <use xlink:href="#DejaVuSans-72" transform="translate(421.679688 0)"/>
       <use xlink:href="#DejaVuSans-6f" transform="translate(460.542969 0)"/>
       <use xlink:href="#DejaVuSans-6c" transform="translate(521.724609 0)"/>
      </g>
     </g>
    </g>
    <g id="xtick_8">
     <g id="text_8">
      <!-- bp_category_normal -->
      <g style="fill: #262626" transform="translate(381.494531 316.399219) rotate(-90) scale(0.11 -0.11)">
       <use xlink:href="#DejaVuSans-62"/>
       <use xlink:href="#DejaVuSans-70" transform="translate(63.476562 0)"/>
       <use xlink:href="#DejaVuSans-5f" transform="translate(126.953125 0)"/>
       <use xlink:href="#DejaVuSans-63" transform="translate(176.953125 0)"/>
       <use xlink:href="#DejaVuSans-61" transform="translate(231.933594 0)"/>
       <use xlink:href="#DejaVuSans-74" transform="translate(293.212891 0)"/>
       <use xlink:href="#DejaVuSans-65" transform="translate(332.421875 0)"/>
       <use xlink:href="#DejaVuSans-67" transform="translate(393.945312 0)"/>
       <use xlink:href="#DejaVuSans-6f" transform="translate(457.421875 0)"/>
       <use xlink:href="#DejaVuSans-72" transform="translate(518.603516 0)"/>
       <use xlink:href="#DejaVuSans-79" transform="translate(559.716797 0)"/>
       <use xlink:href="#DejaVuSans-5f" transform="translate(618.896484 0)"/>
       <use xlink:href="#DejaVuSans-6e" transform="translate(668.896484 0)"/>
       <use xlink:href="#DejaVuSans-6f" transform="translate(732.275391 0)"/>
       <use xlink:href="#DejaVuSans-72" transform="translate(793.457031 0)"/>
       <use xlink:href="#DejaVuSans-6d" transform="translate(832.820312 0)"/>
       <use xlink:href="#DejaVuSans-61" transform="translate(930.232422 0)"/>
       <use xlink:href="#DejaVuSans-6c" transform="translate(991.511719 0)"/>
      </g>
     </g>
    </g>
    <g id="xtick_9">
     <g id="text_9">
      <!-- bmi -->
      <g style="fill: #262626" transform="translate(425.436667 225.027031) rotate(-90) scale(0.11 -0.11)">
       <use xlink:href="#DejaVuSans-62"/>
       <use xlink:href="#DejaVuSans-6d" transform="translate(63.476562 0)"/>
       <use xlink:href="#DejaVuSans-69" transform="translate(160.888672 0)"/>
      </g>
     </g>
    </g>
    <g id="xtick_10">
     <g id="text_10">
      <!-- weight -->
      <g style="fill: #262626" transform="translate(469.225833 241.360312) rotate(-90) scale(0.11 -0.11)">
       <defs>
        <path id="DejaVuSans-77" d="M 269 3500 
L 844 3500 
L 1563 769 
L 2278 3500 
L 2956 3500 
L 3675 769 
L 4391 3500 
L 4966 3500 
L 4050 0 
L 3372 0 
L 2619 2869 
L 1863 0 
L 1184 0 
L 269 3500 
z
" transform="scale(0.015625)"/>
       </defs>
       <use xlink:href="#DejaVuSans-77"/>
       <use xlink:href="#DejaVuSans-65" transform="translate(81.787109 0)"/>
       <use xlink:href="#DejaVuSans-69" transform="translate(143.310547 0)"/>
       <use xlink:href="#DejaVuSans-67" transform="translate(171.09375 0)"/>
       <use xlink:href="#DejaVuSans-68" transform="translate(234.570312 0)"/>
       <use xlink:href="#DejaVuSans-74" transform="translate(297.949219 0)"/>
      </g>
     </g>
    </g>
    <g id="xtick_11">
     <g id="text_11">
      <!-- bp_category_htn1 -->
      <g style="fill: #262626" transform="translate(512.862031 303.109844) rotate(-90) scale(0.11 -0.11)">
       <defs>
        <path id="DejaVuSans-31" d="M 794 531 
L 1825 531 
L 1825 4091 
L 703 3866 
L 703 4441 
L 1819 4666 
L 2450 4666 
L 2450 531 
L 3481 531 
L 3481 0 
L 794 0 
L 794 531 
z
" transform="scale(0.015625)"/>
       </defs>
       <use xlink:href="#DejaVuSans-62"/>
       <use xlink:href="#DejaVuSans-70" transform="translate(63.476562 0)"/>
       <use xlink:href="#DejaVuSans-5f" transform="translate(126.953125 0)"/>
       <use xlink:href="#DejaVuSans-63" transform="translate(176.953125 0)"/>
       <use xlink:href="#DejaVuSans-61" transform="translate(231.933594 0)"/>
       <use xlink:href="#DejaVuSans-74" transform="translate(293.212891 0)"/>
       <use xlink:href="#DejaVuSans-65" transform="translate(332.421875 0)"/>
       <use xlink:href="#DejaVuSans-67" transform="translate(393.945312 0)"/>
       <use xlink:href="#DejaVuSans-6f" transform="translate(457.421875 0)"/>
       <use xlink:href="#DejaVuSans-72" transform="translate(518.603516 0)"/>
       <use xlink:href="#DejaVuSans-79" transform="translate(559.716797 0)"/>
       <use xlink:href="#DejaVuSans-5f" transform="translate(618.896484 0)"/>
       <use xlink:href="#DejaVuSans-68" transform="translate(668.896484 0)"/>
       <use xlink:href="#DejaVuSans-74" transform="translate(732.275391 0)"/>
       <use xlink:href="#DejaVuSans-6e" transform="translate(771.484375 0)"/>
       <use xlink:href="#DejaVuSans-31" transform="translate(834.863281 0)"/>
      </g>
     </g>
    </g>
    <g id="xtick_12">
     <g id="text_12">
      <!-- gluc -->
      <g style="fill: #262626" transform="translate(556.804167 227.331875) rotate(-90) scale(0.11 -0.11)">
       <use xlink:href="#DejaVuSans-67"/>
       <use xlink:href="#DejaVuSans-6c" transform="translate(63.476562 0)"/>
       <use xlink:href="#DejaVuSans-75" transform="translate(91.259766 0)"/>
       <use xlink:href="#DejaVuSans-63" transform="translate(154.638672 0)"/>
      </g>
     </g>
    </g>
    <g id="xtick_13">
     <g id="text_13">
      <!-- bp_category_elevated -->
      <g style="fill: #262626" transform="translate(600.440365 325.764687) rotate(-90) scale(0.11 -0.11)">
       <defs>
        <path id="DejaVuSans-76" d="M 191 3500 
L 800 3500 
L 1894 563 
L 2988 3500 
L 3597 3500 
L 2284 0 
L 1503 0 
L 191 3500 
z
" transform="scale(0.015625)"/>
        <path id="DejaVuSans-64" d="M 2906 2969 
L 2906 4863 
L 3481 4863 
L 3481 0 
L 2906 0 
L 2906 525 
Q 2725 213 2448 61 
Q 2172 -91 1784 -91 
Q 1150 -91 751 415 
Q 353 922 353 1747 
Q 353 2572 751 3078 
Q 1150 3584 1784 3584 
Q 2172 3584 2448 3432 
Q 2725 3281 2906 2969 
z
M 947 1747 
Q 947 1113 1208 752 
Q 1469 391 1925 391 
Q 2381 391 2643 752 
Q 2906 1113 2906 1747 
Q 2906 2381 2643 2742 
Q 2381 3103 1925 3103 
Q 1469 3103 1208 2742 
Q 947 2381 947 1747 
z
" transform="scale(0.015625)"/>
       </defs>
       <use xlink:href="#DejaVuSans-62"/>
       <use xlink:href="#DejaVuSans-70" transform="translate(63.476562 0)"/>
       <use xlink:href="#DejaVuSans-5f" transform="translate(126.953125 0)"/>
       <use xlink:href="#DejaVuSans-63" transform="translate(176.953125 0)"/>
       <use xlink:href="#DejaVuSans-61" transform="translate(231.933594 0)"/>
       <use xlink:href="#DejaVuSans-74" transform="translate(293.212891 0)"/>
       <use xlink:href="#DejaVuSans-65" transform="translate(332.421875 0)"/>
       <use xlink:href="#DejaVuSans-67" transform="translate(393.945312 0)"/>
       <use xlink:href="#DejaVuSans-6f" transform="translate(457.421875 0)"/>
       <use xlink:href="#DejaVuSans-72" transform="translate(518.603516 0)"/>
       <use xlink:href="#DejaVuSans-79" transform="translate(559.716797 0)"/>
       <use xlink:href="#DejaVuSans-5f" transform="translate(618.896484 0)"/>
       <use xlink:href="#DejaVuSans-65" transform="translate(668.896484 0)"/>
       <use xlink:href="#DejaVuSans-6c" transform="translate(730.419922 0)"/>
       <use xlink:href="#DejaVuSans-65" transform="translate(758.203125 0)"/>
       <use xlink:href="#DejaVuSans-76" transform="translate(819.726562 0)"/>
       <use xlink:href="#DejaVuSans-61" transform="translate(878.90625 0)"/>
       <use xlink:href="#DejaVuSans-74" transform="translate(940.185547 0)"/>
       <use xlink:href="#DejaVuSans-65" transform="translate(979.394531 0)"/>
       <use xlink:href="#DejaVuSans-64" transform="translate(1040.917969 0)"/>
      </g>
     </g>
    </g>
    <g id="xtick_14">
     <g id="text_14">
      <!-- active -->
      <g style="fill: #262626" transform="translate(644.3825 237.709687) rotate(-90) scale(0.11 -0.11)">
       <use xlink:href="#DejaVuSans-61"/>
       <use xlink:href="#DejaVuSans-63" transform="translate(61.279297 0)"/>
       <use xlink:href="#DejaVuSans-74" transform="translate(116.259766 0)"/>
       <use xlink:href="#DejaVuSans-69" transform="translate(155.46875 0)"/>
       <use xlink:href="#DejaVuSans-76" transform="translate(183.251953 0)"/>
       <use xlink:href="#DejaVuSans-65" transform="translate(242.431641 0)"/>
      </g>
     </g>
    </g>
    <g id="xtick_15">
     <g id="text_15">
      <!-- smoke -->
      <g style="fill: #262626" transform="translate(688.171667 240.188125) rotate(-90) scale(0.11 -0.11)">
       <defs>
        <path id="DejaVuSans-6b" d="M 581 4863 
L 1159 4863 
L 1159 1991 
L 2875 3500 
L 3609 3500 
L 1753 1863 
L 3688 0 
L 2938 0 
L 1159 1709 
L 1159 0 
L 581 0 
L 581 4863 
z
" transform="scale(0.015625)"/>
       </defs>
       <use xlink:href="#DejaVuSans-73"/>
       <use xlink:href="#DejaVuSans-6d" transform="translate(52.099609 0)"/>
       <use xlink:href="#DejaVuSans-6f" transform="translate(149.511719 0)"/>
       <use xlink:href="#DejaVuSans-6b" transform="translate(210.693359 0)"/>
       <use xlink:href="#DejaVuSans-65" transform="translate(264.978516 0)"/>
      </g>
     </g>
    </g>
    <g id="xtick_16">
     <g id="text_16">
      <!-- height -->
      <g style="fill: #262626" transform="translate(731.960833 239.335625) rotate(-90) scale(0.11 -0.11)">
       <use xlink:href="#DejaVuSans-68"/>
       <use xlink:href="#DejaVuSans-65" transform="translate(63.378906 0)"/>
       <use xlink:href="#DejaVuSans-69" transform="translate(124.902344 0)"/>
       <use xlink:href="#DejaVuSans-67" transform="translate(152.685547 0)"/>
       <use xlink:href="#DejaVuSans-68" transform="translate(216.162109 0)"/>
       <use xlink:href="#DejaVuSans-74" transform="translate(279.541016 0)"/>
      </g>
     </g>
    </g>
    <g id="xtick_17">
     <g id="text_17">
      <!-- alco -->
      <g style="fill: #262626" transform="translate(775.75 226.848906) rotate(-90) scale(0.11 -0.11)">
       <use xlink:href="#DejaVuSans-61"/>
       <use xlink:href="#DejaVuSans-6c" transform="translate(61.279297 0)"/>
       <use xlink:href="#DejaVuSans-63" transform="translate(89.0625 0)"/>
       <use xlink:href="#DejaVuSans-6f" transform="translate(144.042969 0)"/>
      </g>
     </g>
    </g>
    <g id="xtick_18">
     <g id="text_18">
      <!-- gender -->
      <g style="fill: #262626" transform="translate(819.539167 243.269844) rotate(-90) scale(0.11 -0.11)">
       <use xlink:href="#DejaVuSans-67"/>
       <use xlink:href="#DejaVuSans-65" transform="translate(63.476562 0)"/>
       <use xlink:href="#DejaVuSans-6e" transform="translate(125 0)"/>
       <use xlink:href="#DejaVuSans-64" transform="translate(188.378906 0)"/>
       <use xlink:href="#DejaVuSans-65" transform="translate(251.855469 0)"/>
       <use xlink:href="#DejaVuSans-72" transform="translate(313.378906 0)"/>
      </g>
     </g>
    </g>
    <g id="text_19">
     <!-- Fitur -->
     <g style="fill: #262626" transform="translate(430.991875 338.882812) scale(0.12 -0.12)">
      <defs>
       <path id="DejaVuSans-46" d="M 628 4666 
L 3309 4666 
L 3309 4134 
L 1259 4134 
L 1259 2759 
L 3109 2759 
L 3109 2228 
L 1259 2228 
L 1259 0 
L 628 0 
L 628 4666 
z
" transform="scale(0.015625)"/>
      </defs>
      <use xlink:href="#DejaVuSans-46"/>
      <use xlink:href="#DejaVuSans-69" transform="translate(50.269531 0)"/>
      <use xlink:href="#DejaVuSans-74" transform="translate(78.052734 0)"/>
      <use xlink:href="#DejaVuSans-75" transform="translate(117.261719 0)"/>
      <use xlink:href="#DejaVuSans-72" transform="translate(180.640625 0)"/>
     </g>
    </g>
   </g>
   <g id="matplotlib.axis_2">
    <g id="ytick_1">
     <g id="line2d_1">
      <path d="M 50.193438 194.773125 
L 838.398438 194.773125 
" clip-path="url(#p9179de480a)" style="fill: none; stroke: #cccccc; stroke-linecap: round"/>
     </g>
     <g id="text_20">
      <!-- 0.0 -->
      <g style="fill: #262626" transform="translate(23.2 198.952266) scale(0.11 -0.11)">
       <defs>
        <path id="DejaVuSans-30" d="M 2034 4250 
Q 1547 4250 1301 3770 
Q 1056 3291 1056 2328 
Q 1056 1369 1301 889 
Q 1547 409 2034 409 
Q 2525 409 2770 889 
Q 3016 1369 3016 2328 
Q 3016 3291 2770 3770 
Q 2525 4250 2034 4250 
z
M 2034 4750 
Q 2819 4750 3233 4129 
Q 3647 3509 3647 2328 
Q 3647 1150 3233 529 
Q 2819 -91 2034 -91 
Q 1250 -91 836 529 
Q 422 1150 422 2328 
Q 422 3509 836 4129 
Q 1250 4750 2034 4750 
z
" transform="scale(0.015625)"/>
        <path id="DejaVuSans-2e" d="M 684 794 
L 1344 794 
L 1344 0 
L 684 0 
L 684 794 
z
" transform="scale(0.015625)"/>
       </defs>
       <use xlink:href="#DejaVuSans-30"/>
       <use xlink:href="#DejaVuSans-2e" transform="translate(63.623047 0)"/>
       <use xlink:href="#DejaVuSans-30" transform="translate(95.410156 0)"/>
      </g>
     </g>
    </g>
    <g id="ytick_2">
     <g id="line2d_2">
      <path d="M 50.193438 156.401692 
L 838.398438 156.401692 
" clip-path="url(#p9179de480a)" style="fill: none; stroke: #cccccc; stroke-linecap: round"/>
     </g>
     <g id="text_21">
      <!-- 0.1 -->
      <g style="fill: #262626" transform="translate(23.2 160.580833) scale(0.11 -0.11)">
       <use xlink:href="#DejaVuSans-30"/>
       <use xlink:href="#DejaVuSans-2e" transform="translate(63.623047 0)"/>
       <use xlink:href="#DejaVuSans-31" transform="translate(95.410156 0)"/>
      </g>
     </g>
    </g>
    <g id="ytick_3">
     <g id="line2d_3">
      <path d="M 50.193438 118.030259 
L 838.398438 118.030259 
" clip-path="url(#p9179de480a)" style="fill: none; stroke: #cccccc; stroke-linecap: round"/>
     </g>
     <g id="text_22">
      <!-- 0.2 -->
      <g style="fill: #262626" transform="translate(23.2 122.2094) scale(0.11 -0.11)">
       <use xlink:href="#DejaVuSans-30"/>
       <use xlink:href="#DejaVuSans-2e" transform="translate(63.623047 0)"/>
       <use xlink:href="#DejaVuSans-32" transform="translate(95.410156 0)"/>
      </g>
     </g>
    </g>
    <g id="ytick_4">
     <g id="line2d_4">
      <path d="M 50.193438 79.658827 
L 838.398438 79.658827 
" clip-path="url(#p9179de480a)" style="fill: none; stroke: #cccccc; stroke-linecap: round"/>
     </g>
     <g id="text_23">
      <!-- 0.3 -->
      <g style="fill: #262626" transform="translate(23.2 83.837967) scale(0.11 -0.11)">
       <defs>
        <path id="DejaVuSans-33" d="M 2597 2516 
Q 3050 2419 3304 2112 
Q 3559 1806 3559 1356 
Q 3559 666 3084 287 
Q 2609 -91 1734 -91 
Q 1441 -91 1130 -33 
Q 819 25 488 141 
L 488 750 
Q 750 597 1062 519 
Q 1375 441 1716 441 
Q 2309 441 2620 675 
Q 2931 909 2931 1356 
Q 2931 1769 2642 2001 
Q 2353 2234 1838 2234 
L 1294 2234 
L 1294 2753 
L 1863 2753 
Q 2328 2753 2575 2939 
Q 2822 3125 2822 3475 
Q 2822 3834 2567 4026 
Q 2313 4219 1838 4219 
Q 1578 4219 1281 4162 
Q 984 4106 628 3988 
L 628 4550 
Q 988 4650 1302 4700 
Q 1616 4750 1894 4750 
Q 2613 4750 3031 4423 
Q 3450 4097 3450 3541 
Q 3450 3153 3228 2886 
Q 3006 2619 2597 2516 
z
" transform="scale(0.015625)"/>
       </defs>
       <use xlink:href="#DejaVuSans-30"/>
       <use xlink:href="#DejaVuSans-2e" transform="translate(63.623047 0)"/>
       <use xlink:href="#DejaVuSans-33" transform="translate(95.410156 0)"/>
      </g>
     </g>
    </g>
    <g id="ytick_5">
     <g id="line2d_5">
      <path d="M 50.193438 41.287394 
L 838.398438 41.287394 
" clip-path="url(#p9179de480a)" style="fill: none; stroke: #cccccc; stroke-linecap: round"/>
     </g>
     <g id="text_24">
      <!-- 0.4 -->
      <g style="fill: #262626" transform="translate(23.2 45.466534) scale(0.11 -0.11)">
       <defs>
        <path id="DejaVuSans-34" d="M 2419 4116 
L 825 1625 
L 2419 1625 
L 2419 4116 
z
M 2253 4666 
L 3047 4666 
L 3047 1625 
L 3713 1625 
L 3713 1100 
L 3047 1100 
L 3047 0 
L 2419 0 
L 2419 1100 
L 313 1100 
L 313 1709 
L 2253 4666 
z
" transform="scale(0.015625)"/>
       </defs>
       <use xlink:href="#DejaVuSans-30"/>
       <use xlink:href="#DejaVuSans-2e" transform="translate(63.623047 0)"/>
       <use xlink:href="#DejaVuSans-34" transform="translate(95.410156 0)"/>
      </g>
     </g>
    </g>
    <g id="text_25">
     <!-- |Korelasi terhadap cardio| -->
     <g style="fill: #262626" transform="translate(16.370625 185.532187) rotate(-90) scale(0.12 -0.12)">
      <defs>
       <path id="DejaVuSans-7c" d="M 1344 4891 
L 1344 -1509 
L 813 -1509 
L 813 4891 
L 1344 4891 
z
" transform="scale(0.015625)"/>
       <path id="DejaVuSans-4b" d="M 628 4666 
L 1259 4666 
L 1259 2694 
L 3353 4666 
L 4166 4666 
L 1850 2491 
L 4331 0 
L 3500 0 
L 1259 2247 
L 1259 0 
L 628 0 
L 628 4666 
z
" transform="scale(0.015625)"/>
       <path id="DejaVuSans-20" transform="scale(0.015625)"/>
      </defs>
      <use xlink:href="#DejaVuSans-7c"/>
      <use xlink:href="#DejaVuSans-4b" transform="translate(33.691406 0)"/>
      <use xlink:href="#DejaVuSans-6f" transform="translate(94.267578 0)"/>
      <use xlink:href="#DejaVuSans-72" transform="translate(155.449219 0)"/>
      <use xlink:href="#DejaVuSans-65" transform="translate(194.3125 0)"/>
      <use xlink:href="#DejaVuSans-6c" transform="translate(255.835938 0)"/>
      <use xlink:href="#DejaVuSans-61" transform="translate(283.619141 0)"/>
      <use xlink:href="#DejaVuSans-73" transform="translate(344.898438 0)"/>
      <use xlink:href="#DejaVuSans-69" transform="translate(396.998047 0)"/>
      <use xlink:href="#DejaVuSans-20" transform="translate(424.78125 0)"/>
      <use xlink:href="#DejaVuSans-74" transform="translate(456.568359 0)"/>
      <use xlink:href="#DejaVuSans-65" transform="translate(495.777344 0)"/>
      <use xlink:href="#DejaVuSans-72" transform="translate(557.300781 0)"/>
      <use xlink:href="#DejaVuSans-68" transform="translate(596.664062 0)"/>
      <use xlink:href="#DejaVuSans-61" transform="translate(660.042969 0)"/>
      <use xlink:href="#DejaVuSans-64" transform="translate(721.322266 0)"/>
      <use xlink:href="#DejaVuSans-61" transform="translate(784.798828 0)"/>
      <use xlink:href="#DejaVuSans-70" transform="translate(846.078125 0)"/>
      <use xlink:href="#DejaVuSans-20" transform="translate(909.554688 0)"/>
      <use xlink:href="#DejaVuSans-63" transform="translate(941.341797 0)"/>
      <use xlink:href="#DejaVuSans-61" transform="translate(996.322266 0)"/>
      <use xlink:href="#DejaVuSans-72" transform="translate(1057.601562 0)"/>
      <use xlink:href="#DejaVuSans-64" transform="translate(1096.964844 0)"/>
      <use xlink:href="#DejaVuSans-69" transform="translate(1160.441406 0)"/>
      <use xlink:href="#DejaVuSans-6f" transform="translate(1188.224609 0)"/>
      <use xlink:href="#DejaVuSans-7c" transform="translate(1249.40625 0)"/>
     </g>
    </g>
   </g>
   <g id="patch_3">
    <path d="M 54.572354 194.773125 
L 89.603688 194.773125 
L 89.603688 30.530268 
L 54.572354 30.530268 
z
" clip-path="url(#p9179de480a)" style="fill: #78abc9; stroke: #ffffff; stroke-linejoin: miter"/>
   </g>
   <g id="patch_4">
    <path d="M 98.361521 194.773125 
L 133.392854 194.773125 
L 133.392854 37.606387 
L 98.361521 37.606387 
z
" clip-path="url(#p9179de480a)" style="fill: #78abc9; stroke: #ffffff; stroke-linejoin: miter"/>
   </g>
   <g id="patch_5">
    <path d="M 142.150688 194.773125 
L 177.182021 194.773125 
L 177.182021 64.137695 
L 142.150688 64.137695 
z
" clip-path="url(#p9179de480a)" style="fill: #78abc9; stroke: #ffffff; stroke-linejoin: miter"/>
   </g>
   <g id="patch_6">
    <path d="M 185.939854 194.773125 
L 220.971188 194.773125 
L 220.971188 64.562783 
L 185.939854 64.562783 
z
" clip-path="url(#p9179de480a)" style="fill: #78abc9; stroke: #ffffff; stroke-linejoin: miter"/>
   </g>
   <g id="patch_7">
    <path d="M 229.729021 194.773125 
L 264.760354 194.773125 
L 264.760354 65.487601 
L 229.729021 65.487601 
z
" clip-path="url(#p9179de480a)" style="fill: #78abc9; stroke: #ffffff; stroke-linejoin: miter"/>
   </g>
   <g id="patch_8">
    <path d="M 273.518188 194.773125 
L 308.549521 194.773125 
L 308.549521 102.929513 
L 273.518188 102.929513 
z
" clip-path="url(#p9179de480a)" style="fill: #78abc9; stroke: #ffffff; stroke-linejoin: miter"/>
   </g>
   <g id="patch_9">
    <path d="M 317.307354 194.773125 
L 352.338687 194.773125 
L 352.338687 109.807229 
L 317.307354 109.807229 
z
" clip-path="url(#p9179de480a)" style="fill: #78abc9; stroke: #ffffff; stroke-linejoin: miter"/>
   </g>
   <g id="patch_10">
    <path d="M 361.096521 194.773125 
L 396.127854 194.773125 
L 396.127854 110.458411 
L 361.096521 110.458411 
z
" clip-path="url(#p9179de480a)" style="fill: #78abc9; stroke: #ffffff; stroke-linejoin: miter"/>
   </g>
   <g id="patch_11">
    <path d="M 404.885688 194.773125 
L 439.917021 194.773125 
L 439.917021 122.044742 
L 404.885688 122.044742 
z
" clip-path="url(#p9179de480a)" style="fill: #78abc9; stroke: #ffffff; stroke-linejoin: miter"/>
   </g>
   <g id="patch_12">
    <path d="M 448.674854 194.773125 
L 483.706188 194.773125 
L 483.706188 125.68235 
L 448.674854 125.68235 
z
" clip-path="url(#p9179de480a)" style="fill: #78abc9; stroke: #ffffff; stroke-linejoin: miter"/>
   </g>
   <g id="patch_13">
    <path d="M 492.464021 194.773125 
L 527.495354 194.773125 
L 527.495354 153.186429 
L 492.464021 153.186429 
z
" clip-path="url(#p9179de480a)" style="fill: #78abc9; stroke: #ffffff; stroke-linejoin: miter"/>
   </g>
   <g id="patch_14">
    <path d="M 536.253187 194.773125 
L 571.284521 194.773125 
L 571.284521 160.349181 
L 536.253187 160.349181 
z
" clip-path="url(#p9179de480a)" style="fill: #78abc9; stroke: #ffffff; stroke-linejoin: miter"/>
   </g>
   <g id="patch_15">
    <path d="M 580.042354 194.773125 
L 615.073688 194.773125 
L 615.073688 166.092971 
L 580.042354 166.092971 
z
" clip-path="url(#p9179de480a)" style="fill: #78abc9; stroke: #ffffff; stroke-linejoin: miter"/>
   </g>
   <g id="patch_16">
    <path d="M 623.831521 194.773125 
L 658.862854 194.773125 
L 658.862854 180.329968 
L 623.831521 180.329968 
z
" clip-path="url(#p9179de480a)" style="fill: #78abc9; stroke: #ffffff; stroke-linejoin: miter"/>
   </g>
   <g id="patch_17">
    <path d="M 667.620687 194.773125 
L 702.652021 194.773125 
L 702.652021 188.507132 
L 667.620687 188.507132 
z
" clip-path="url(#p9179de480a)" style="fill: #78abc9; stroke: #ffffff; stroke-linejoin: miter"/>
   </g>
   <g id="patch_18">
    <path d="M 711.409854 194.773125 
L 746.441187 194.773125 
L 746.441187 190.218596 
L 711.409854 190.218596 
z
" clip-path="url(#p9179de480a)" style="fill: #78abc9; stroke: #ffffff; stroke-linejoin: miter"/>
   </g>
   <g id="patch_19">
    <path d="M 755.199021 194.773125 
L 790.230354 194.773125 
L 790.230354 191.50327 
L 755.199021 191.50327 
z
" clip-path="url(#p9179de480a)" style="fill: #78abc9; stroke: #ffffff; stroke-linejoin: miter"/>
   </g>
   <g id="patch_20">
    <path d="M 798.988187 194.773125 
L 834.019521 194.773125 
L 834.019521 192.021735 
L 798.988187 192.021735 
z
" clip-path="url(#p9179de480a)" style="fill: #78abc9; stroke: #ffffff; stroke-linejoin: miter"/>
   </g>
   <g id="line2d_6">
    <path clip-path="url(#p9179de480a)" style="fill: none; stroke: #424242; stroke-width: 2.25; stroke-linecap: round"/>
   </g>
   <g id="line2d_7">
    <path clip-path="url(#p9179de480a)" style="fill: none; stroke: #424242; stroke-width: 2.25; stroke-linecap: round"/>
   </g>
   <g id="line2d_8">
    <path clip-path="url(#p9179de480a)" style="fill: none; stroke: #424242; stroke-width: 2.25; stroke-linecap: round"/>
   </g>
   <g id="line2d_9">
    <path clip-path="url(#p9179de480a)" style="fill: none; stroke: #424242; stroke-width: 2.25; stroke-linecap: round"/>
   </g>
   <g id="line2d_10">
    <path clip-path="url(#p9179de480a)" style="fill: none; stroke: #424242; stroke-width: 2.25; stroke-linecap: round"/>
   </g>
   <g id="line2d_11">
    <path clip-path="url(#p9179de480a)" style="fill: none; stroke: #424242; stroke-width: 2.25; stroke-linecap: round"/>
   </g>
   <g id="line2d_12">
    <path clip-path="url(#p9179de480a)" style="fill: none; stroke: #424242; stroke-width: 2.25; stroke-linecap: round"/>
   </g>
   <g id="line2d_13">
    <path clip-path="url(#p9179de480a)" style="fill: none; stroke: #424242; stroke-width: 2.25; stroke-linecap: round"/>
   </g>
   <g id="line2d_14">
    <path clip-path="url(#p9179de480a)" style="fill: none; stroke: #424242; stroke-width: 2.25; stroke-linecap: round"/>
   </g>
   <g id="line2d_15">
    <path clip-path="url(#p9179de480a)" style="fill: none; stroke: #424242; stroke-width: 2.25; stroke-linecap: round"/>
   </g>
   <g id="line2d_16">
    <path clip-path="url(#p9179de480a)" style="fill: none; stroke: #424242; stroke-width: 2.25; stroke-linecap: round"/>
   </g>
   <g id="line2d_17">
    <path clip-path="url(#p9179de480a)" style="fill: none; stroke: #424242; stroke-width: 2.25; stroke-linecap: round"/>
   </g>
   <g id="line2d_18">
    <path clip-path="url(#p9179de480a)" style="fill: none; stroke: #424242; stroke-width: 2.25; stroke-linecap: round"/>
   </g>
   <g id="line2d_19">
    <path clip-path="url(#p9179de480a)" style="fill: none; stroke: #424242; stroke-width: 2.25; stroke-linecap: round"/>
   </g>
   <g id="line2d_20">
    <path clip-path="url(#p9179de480a)" style="fill: none; stroke: #424242; stroke-width: 2.25; stroke-linecap: round"/>
   </g>
   <g id="line2d_21">
    <path clip-path="url(#p9179de480a)" style="fill: none; stroke: #424242; stroke-width: 2.25; stroke-linecap: round"/>
   </g>
   <g id="line2d_22">
    <path clip-path="url(#p9179de480a)" style="fill: none; stroke: #424242; stroke-width: 2.25; stroke-linecap: round"/>
   </g>
   <g id="line2d_23">
    <path clip-path="url(#p9179de480a)" style="fill: none; stroke: #424242; stroke-width: 2.25; stroke-linecap: round"/>
   </g>
   <g id="patch_21">
    <path d="M 50.193438 194.773125 
L 50.193438 22.318125 
" style="fill: none; stroke: #cccccc; stroke-width: 1.25; stroke-linejoin: miter; stroke-linecap: square"/>
   </g>
   <g id="patch_22">
    <path d="M 838.398438 194.773125 
L 838.398438 22.318125 
" style="fill: none; stroke: #cccccc; stroke-width: 1.25; stroke-linejoin: miter; stroke-linecap: square"/>
   </g>
   <g id="patch_23">
    <path d="M 50.193438 194.773125 
L 838.398438 194.773125 
" style="fill: none; stroke: #cccccc; stroke-width: 1.25; stroke-linejoin: miter; stroke-linecap: square"/>
   </g>
   <g id="patch_24">
    <path d="M 50.193438 22.318125 
L 838.398438 22.318125 
" style="fill: none; stroke: #cccccc; stroke-width: 1.25; stroke-linejoin: miter; stroke-linecap: square"/>
   </g>
   <g id="text_26">
    <!-- Korelasi Absolut Fitur terhadap Target Cardio -->
    <g style="fill: #262626" transform="translate(310.338438 16.318125) scale(0.12 -0.12)">
     <defs>
      <path id="DejaVuSans-41" d="M 2188 4044 
L 1331 1722 
L 3047 1722 
L 2188 4044 
z
M 1831 4666 
L 2547 4666 
L 4325 0 
L 3669 0 
L 3244 1197 
L 1141 1197 
L 716 0 
L 50 0 
L 1831 4666 
z
" transform="scale(0.015625)"/>
      <path id="DejaVuSans-54" d="M -19 4666 
L 3928 4666 
L 3928 4134 
L 2272 4134 
L 2272 0 
L 1638 0 
L 1638 4134 
L -19 4134 
L -19 4666 
z
" transform="scale(0.015625)"/>
      <path id="DejaVuSans-43" d="M 4122 4306 
L 4122 3641 
Q 3803 3938 3442 4084 
Q 3081 4231 2675 4231 
Q 1875 4231 1450 3742 
Q 1025 3253 1025 2328 
Q 1025 1406 1450 917 
Q 1875 428 2675 428 
Q 3081 428 3442 575 
Q 3803 722 4122 1019 
L 4122 359 
Q 3791 134 3420 21 
Q 3050 -91 2638 -91 
Q 1578 -91 968 557 
Q 359 1206 359 2328 
Q 359 3453 968 4101 
Q 1578 4750 2638 4750 
Q 3056 4750 3426 4639 
Q 3797 4528 4122 4306 
z
" transform="scale(0.015625)"/>
     </defs>
     <use xlink:href="#DejaVuSans-4b"/>
     <use xlink:href="#DejaVuSans-6f" transform="translate(60.576172 0)"/>
     <use xlink:href="#DejaVuSans-72" transform="translate(121.757812 0)"/>
     <use xlink:href="#DejaVuSans-65" transform="translate(160.621094 0)"/>
     <use xlink:href="#DejaVuSans-6c" transform="translate(222.144531 0)"/>
     <use xlink:href="#DejaVuSans-61" transform="translate(249.927734 0)"/>
     <use xlink:href="#DejaVuSans-73" transform="translate(311.207031 0)"/>
     <use xlink:href="#DejaVuSans-69" transform="translate(363.306641 0)"/>
     <use xlink:href="#DejaVuSans-20" transform="translate(391.089844 0)"/>
     <use xlink:href="#DejaVuSans-41" transform="translate(422.876953 0)"/>
     <use xlink:href="#DejaVuSans-62" transform="translate(491.285156 0)"/>
     <use xlink:href="#DejaVuSans-73" transform="translate(554.761719 0)"/>
     <use xlink:href="#DejaVuSans-6f" transform="translate(606.861328 0)"/>
     <use xlink:href="#DejaVuSans-6c" transform="translate(668.042969 0)"/>
     <use xlink:href="#DejaVuSans-75" transform="translate(695.826172 0)"/>
     <use xlink:href="#DejaVuSans-74" transform="translate(759.205078 0)"/>
     <use xlink:href="#DejaVuSans-20" transform="translate(798.414062 0)"/>
     <use xlink:href="#DejaVuSans-46" transform="translate(830.201172 0)"/>
     <use xlink:href="#DejaVuSans-69" transform="translate(880.470703 0)"/>
     <use xlink:href="#DejaVuSans-74" transform="translate(908.253906 0)"/>
     <use xlink:href="#DejaVuSans-75" transform="translate(947.462891 0)"/>
     <use xlink:href="#DejaVuSans-72" transform="translate(1010.841797 0)"/>
     <use xlink:href="#DejaVuSans-20" transform="translate(1051.955078 0)"/>
     <use xlink:href="#DejaVuSans-74" transform="translate(1083.742188 0)"/>
     <use xlink:href="#DejaVuSans-65" transform="translate(1122.951172 0)"/>
     <use xlink:href="#DejaVuSans-72" transform="translate(1184.474609 0)"/>
     <use xlink:href="#DejaVuSans-68" transform="translate(1223.837891 0)"/>
     <use xlink:href="#DejaVuSans-61" transform="translate(1287.216797 0)"/>
     <use xlink:href="#DejaVuSans-64" transform="translate(1348.496094 0)"/>
     <use xlink:href="#DejaVuSans-61" transform="translate(1411.972656 0)"/>
     <use xlink:href="#DejaVuSans-70" transform="translate(1473.251953 0)"/>
     <use xlink:href="#DejaVuSans-20" transform="translate(1536.728516 0)"/>
     <use xlink:href="#DejaVuSans-54" transform="translate(1568.515625 0)"/>
     <use xlink:href="#DejaVuSans-61" transform="translate(1613.099609 0)"/>
     <use xlink:href="#DejaVuSans-72" transform="translate(1674.378906 0)"/>
     <use xlink:href="#DejaVuSans-67" transform="translate(1713.742188 0)"/>
     <use xlink:href="#DejaVuSans-65" transform="translate(1777.21875 0)"/>
     <use xlink:href="#DejaVuSans-74" transform="translate(1838.742188 0)"/>
     <use xlink:href="#DejaVuSans-20" transform="translate(1877.951172 0)"/>
     <use xlink:href="#DejaVuSans-43" transform="translate(1909.738281 0)"/>
     <use xlink:href="#DejaVuSans-61" transform="translate(1979.5625 0)"/>
     <use xlink:href="#DejaVuSans-72" transform="translate(2040.841797 0)"/>
     <use xlink:href="#DejaVuSans-64" transform="translate(2080.205078 0)"/>
     <use xlink:href="#DejaVuSans-69" transform="translate(2143.681641 0)"/>
     <use xlink:href="#DejaVuSans-6f" transform="translate(2171.464844 0)"/>
    </g>
   </g>
  </g>
 </g>
 <defs>
  <clipPath id="p9179de480a">
   <rect x="50.193438" y="22.318125" width="788.205" height="172.455"/>
  </clipPath>
 </defs>
</svg>
